<?xml version="1.0" standalone="no"?>
<!DOCTYPE svg PUBLIC "-//W3C//DTD SVG 20010904//EN"
 "http://www.w3.org/TR/2001/REC-SVG-20010904/DTD/svg10.dtd">
<svg version="1.0" xmlns="http://www.w3.org/2000/svg"
 width="1999.000000pt" height="611.000000pt" viewBox="0 0 1999.000000 611.000000"
 preserveAspectRatio="xMidYMid meet">

<defs>
  <linearGradient id="BottomToTopGradient" x1="0%" y1="100%" x2="0%" y2="0%">
    <stop offset="0%" style="stop-color:#1D1D95; stop-opacity:1" />
    <stop offset="100%" style="stop-color:#87CEEB; stop-opacity:1" />
    </linearGradient>
</defs>

<g transform="translate(0.000000,611.000000) scale(0.100000,-0.100000)"
   fill="url(#BottomToTopGradient)" stroke="none">
   <path d="M3698 5815 c-32 -8 -81 -26 -110 -41 -29 -15 -633 -366 -1343 -782 -710 -415 -1438 -841 -1620 -948 -346 -202 -365 -216 -365 -282 0 -68 14 -78 429 -320 218 -127 416 -239 441 -248 25 -9 88 -18 141 -21 149 -8 179 4 579 238 190 111 464 271 610 357 146 85 371 216 500 292 129 75 460 269 735 430 1194 699 1077 634 1172 656 80 19 214 14 282 -10 24 -9 45 -15 46 -14 2 2 -254 151 -568 332 -343 198 -594 337 -631 349 -80 25 -223 31 -298 12z"/>
  <path d="M5055 5053 c-80 -17 -223 -94 -855 -461 -393 -228 -739 -430 -768 -449 -103 -68 -197 -207 -222 -326 -7 -37 -10 -313 -8 -902 l3 -850 23 -60 c29 -77 82 -157 142 -214 43 -41 265 -172 1169 -692 l46 -27 -65 67 c-40 41 -77 91 -97 132 -65 132 -64 112 -61 1032 l3 832 23 62 c39 104 112 204 193 265 36 27 1352 795 1475 860 39 20 97 44 129 53 74 19 194 19 265 1 30 -8 56 -13 58 -12 3 3 -1048 611 -1114 644 -65 33 -156 52 -240 51 -44 -1 -88 -3 -99 -6z"/>
  <path d="M6427 4279 c-31 -4 -84 -19 -116 -32 -33 -13 -322 -176 -643 -363 -320 -186 -649 -377 -730 -424 -82 -47 -167 -100 -191 -119 -85 -68 -153 -175 -182 -286 -23 -89 -23 -1691 0 -1780 24 -90 73 -173 145 -245 58 -59 120 -97 610 -379 300 -173 561 -323 580 -334 29 -18 25 -11 -27 41 -34 36 -77 93 -98 132 -65 125 -65 116 -65 1009 0 897 -2 870 69 1006 60 117 126 172 371 314 118 68 283 164 365 212 83 48 319 185 525 304 206 120 386 227 399 239 69 62 69 189 -1 253 -44 40 -702 413 -763 432 -76 23 -174 32 -248 20z"/>
  <path d="M11633 3693 l-103 -4 0 -539 0 -540 85 0 85 0 0 225 0 225 78 -4 77 -4 122 -219 121 -218 92 -3 92 -3 -43 78 c-23 43 -82 149 -131 237 -48 87 -88 162 -88 166 0 4 14 13 31 20 50 21 115 94 136 152 26 77 23 197 -7 266 -60 139 -193 179 -547 165z m321 -157 c17 -8 42 -26 56 -40 21 -24 25 -39 28 -104 4 -97 -14 -137 -77 -171 -48 -26 -159 -39 -225 -27 l-36 7 0 174 0 174 38 4 c58 7 182 -3 216 -17z"/>
  <path d="M13555 3690 c-95 -15 -164 -56 -202 -119 -48 -80 -55 -149 -51 -474 4 -261 6 -286 26 -338 26 -66 69 -110 137 -140 63 -29 243 -37 350 -17 l70 13 3 74 3 74 -28 -7 c-15 -4 -84 -9 -153 -13 -114 -5 -130 -4 -167 15 -71 37 -73 48 -73 389 0 278 1 300 20 330 34 57 62 68 175 68 55 0 128 -4 163 -8 l62 -9 0 70 0 70 -62 11 c-98 16 -207 21 -273 11z"/>
  <path d="M8450 3145 l0 -535 80 0 80 0 0 535 0 535 -80 0 -80 0 0 -535z"/>
  <path d="M8867 3673 c-4 -3 -7 -244 -7 -535 l0 -528 80 0 80 0 0 411 c0 225 3 408 8 405 4 -2 77 -187 162 -410 l155 -406 118 0 117 0 -2 533 -3 532 -77 3 -78 3 0 -418 -1 -418 -152 405 c-84 223 -156 411 -160 418 -9 13 -227 18 -240 5z"/>
  <path d="M9770 3605 l0 -75 150 0 150 0 0 -460 0 -460 80 0 80 0 0 460 0 460 155 0 156 0 -3 73 -3 72 -382 3 -383 2 0 -75z"/>
  <path d="M10720 3145 l0 -535 290 0 291 0 -3 73 -3 72 -208 3 -208 2 3 158 3 157 193 3 192 2 0 70 0 70 -192 2 -193 3 -3 153 -3 152 211 0 211 0 -3 73 -3 72 -287 3 -288 2 0 -535z"/>
  <path d="M12667 3673 c-3 -4 -30 -93 -62 -198 -195 -648 -255 -849 -255 -857 0 -5 37 -8 82 -6 l82 3 29 113 30 112 188 0 188 0 11 -42 c6 -24 15 -56 20 -73 5 -16 14 -49 20 -72 l11 -43 84 0 c47 0 85 4 85 8 0 4 -38 135 -85 290 -47 155 -118 391 -159 524 l-73 243 -96 3 c-52 1 -97 -1 -100 -5z m173 -423 c38 -140 68 -256 66 -257 -2 -2 -68 -2 -148 -1 l-145 3 68 250 c74 268 79 285 85 270 2 -5 35 -125 74 -265z"/>
  <path d="M14030 3605 l0 -75 155 0 155 0 0 -460 0 -460 80 0 80 0 0 460 0 460 150 0 151 0 -3 73 -3 72 -382 3 -383 2 0 -75z"/>
  <path d="M14990 3145 l0 -535 80 0 80 0 -2 533 -3 532 -77 3 -78 3 0 -536z"/>
  <path d="M15310 3678 c0 -2 70 -241 154 -533 l153 -530 104 -3 104 -3 153 515 c85 283 156 524 159 535 5 20 1 21 -80 21 l-85 0 -21 -77 c-12 -43 -67 -248 -123 -455 -56 -208 -104 -375 -107 -372 -3 3 -58 206 -122 452 l-116 447 -86 3 c-48 1 -87 1 -87 0z"/>
  <path d="M16300 3145 l0 -535 290 0 291 0 -3 73 -3 72 -202 3 -203 2 0 160 0 160 190 0 190 0 0 70 0 70 -190 0 -190 0 0 155 0 155 205 0 206 0 -3 73 -3 72 -287 3 -288 2 0 -535z"/>
  <path d="M8633 2316 c-88 -29 -139 -78 -173 -166 -18 -45 -27 -578 -11 -675 20 -131 76 -198 190 -232 67 -19 215 -21 319 -4 l72 13 0 74 c0 41 -1 74 -3 74 -2 0 -50 -7 -108 -16 -164 -24 -253 -4 -289 67 -19 35 -20 60 -20 330 0 251 2 296 17 326 34 72 121 95 282 74 52 -7 100 -15 108 -18 10 -4 13 11 13 70 0 73 -1 75 -27 81 -16 4 -95 9 -178 11 -111 4 -161 1 -192 -9z"/>
  <path d="M9455 2321 c-90 -23 -168 -92 -201 -177 -17 -44 -19 -79 -19 -369 l0 -320 26 -55 c48 -103 125 -154 255 -170 146 -19 282 18 352 94 74 80 77 100 77 456 0 356 -3 376 -77 456 -62 67 -121 88 -263 91 -66 1 -133 -2 -150 -6z m210 -142 c58 -16 101 -67 115 -134 7 -36 10 -141 8 -298 -3 -218 -5 -246 -23 -282 -25 -49 -72 -82 -131 -91 -96 -14 -178 18 -218 86 -20 32 -21 54 -24 297 -2 170 1 276 8 303 28 102 141 153 265 119z"/>
  <path d="M12995 2312 c-68 -24 -110 -55 -139 -105 -42 -72 -48 -137 -44 -467 4 -331 5 -340 65 -418 68 -90 255 -118 491 -76 l32 6 0 75 0 75 -32 -6 c-169 -31 -281 -27 -338 14 -50 36 -55 68 -55 375 0 241 2 285 17 317 20 45 66 75 128 84 42 7 232 -10 265 -23 12 -4 15 8 15 69 l0 75 -69 12 c-106 17 -276 14 -336 -7z"/>
  <path d="M14975 2317 c-108 -36 -167 -111 -185 -233 -13 -91 -13 -532 1 -614 19 -121 79 -193 186 -226 60 -19 223 -21 321 -5 l72 13 0 74 c0 41 -1 74 -3 74 -2 0 -50 -7 -107 -15 -168 -26 -253 -4 -292 75 -16 31 -18 68 -18 320 0 256 2 289 19 326 22 48 66 73 146 81 47 5 189 -9 238 -23 15 -5 17 3 17 69 0 73 -1 75 -27 81 -60 14 -327 16 -368 3z"/>
  <path d="M19072 1788 l3 -543 80 0 80 0 3 228 c2 203 4 228 18 223 9 -3 43 -6 77 -6 l62 0 124 -225 124 -225 90 0 c77 0 88 2 83 16 -3 8 -62 116 -131 240 -69 123 -125 228 -125 233 0 4 18 16 40 26 49 22 96 73 123 134 30 67 29 207 -2 276 -30 67 -61 98 -134 132 -62 28 -64 28 -290 31 l-227 4 2 -544z m438 377 c53 -31 72 -76 68 -160 -6 -130 -59 -169 -228 -170 l-105 0 -3 179 -2 178 117 -3 c96 -3 124 -8 153 -24z"/>
  <path d="M10192 1778 l3 -533 78 -3 77 -3 1 418 c0 324 3 413 12 394 6 -13 79 -200 162 -415 l150 -391 118 -3 117 -3 0 536 0 535 -80 0 -80 0 0 -412 -1 -413 -130 345 c-71 190 -141 375 -155 413 l-26 67 -124 0 -124 0 2 -532z"/>
  <path d="M11090 2240 l0 -69 153 -3 152 -3 3 -462 2 -463 80 0 80 0 2 463 3 462 148 3 147 3 0 69 0 70 -385 0 -385 0 0 -70z"/>
  <path d="M12146 2228 c-14 -46 -84 -279 -156 -518 -72 -239 -133 -443 -136 -452 -5 -16 3 -18 80 -18 l85 0 15 53 c8 28 22 82 32 120 l16 67 187 0 186 0 17 -65 c10 -36 25 -90 33 -120 l16 -55 85 0 c55 0 84 4 84 11 0 12 -21 83 -187 629 -53 173 -103 341 -111 373 l-16 57 -103 0 -102 0 -25 -82z m197 -330 c37 -139 68 -256 67 -260 0 -5 -65 -8 -144 -8 l-144 0 28 103 c92 339 115 417 120 417 3 0 36 -114 73 -252z"/>
  <path d="M13540 2240 l0 -70 150 0 150 0 2 -462 3 -463 80 0 80 0 3 463 2 462 150 0 150 0 0 70 0 70 -385 0 -385 0 0 -70z"/>
  <path d="M15590 1775 l0 -535 290 0 290 0 0 75 0 75 -207 2 -208 3 -3 157 -3 158 193 2 193 3 3 72 3 73 -193 2 -193 3 0 150 0 150 208 3 207 2 0 70 0 70 -290 0 -290 0 0 -535z"/>
  <path d="M16402 1778 l3 -533 78 -3 77 -3 1 418 c0 329 3 413 12 393 7 -13 80 -200 162 -415 l150 -390 118 -3 117 -3 0 536 0 535 -80 0 -80 0 0 -412 0 -413 -130 345 c-72 190 -142 375 -156 413 l-26 67 -124 0 -124 0 2 -532z"/>
  <path d="M17300 2240 l0 -69 153 -3 152 -3 3 -462 2 -463 80 0 80 0 2 463 3 462 148 3 147 3 0 69 0 70 -385 0 -385 0 0 -70z"/>
  <path d="M18260 1775 l0 -535 290 0 290 0 0 75 0 75 -207 2 -208 3 -3 157 -3 158 193 2 193 3 3 72 3 73 -193 2 -193 3 0 150 0 150 208 3 207 2 0 70 0 70 -290 0 -290 0 0 -535z"/>
  <path d="M6767 1816 c-21 -8 -238 -128 -483 -268 l-445 -253 3 -325 3 -325 32 -68 c45 -94 118 -168 214 -216 133 -67 255 -77 383 -32 72 25 1313 734 1343 767 12 13 28 42 34 64 15 48 1 106 -34 144 -29 32 -842 501 -893 515 -52 14 -111 13 -157 -3z"/>
</g>
</svg>